# xmcd CD database file
#
# Track frame offsets:
#	183
#	10175
#	24358
#	42543
#	58665
#	72500
#	86380
#	98320
#	113045
#	126995
#	141060
#	153668
#	165730
#	179063
#	192423
#	205398
#
# Disc length: 2905 seconds
#
# Revision: 2
# Processed by: cddbd v1.5.1PL0 Copyright (c) Steve Scherf et al.
# Submitted via: CDex 1.51
#
DISCID=df0b5710
DTITLE=Astor Piazzolla - Astor Piazzolla et Compagnie
DYEAR=1988
DGENRE=Jazz
TTITLE0=Estamos Listos
TTITLE1=Bando
TTITLE2=Nonino
TTITLE3=Clara Bien Milonga
TTITLE4=Sens Unique
TTITLE5=Mi Buenos Aires Querido
TTITLE6=Por Mi Cabeza
TTITLE7=Picasso
TTITLE8=Mi Tentacion
TTITLE9=Celestino Ferrer
TTITLE10=Astorpia
TTITLE11=Luz Y Sombra
TTITLE12=Volver
TTITLE13=Cuesta Abajo
TTITLE14=Chau Paris
TTITLE15=Tzigane Tango
EXTD=YEAR: 1988
EXTT0=
EXTT1=
EXTT2=
EXTT3=
EXTT4=
EXTT5=
EXTT6=
EXTT7=
EXTT8=
EXTT9=
EXTT10=
EXTT11=
EXTT12=
EXTT13=
EXTT14=
EXTT15=
PLAYORDER=
